<?xml version="1.0" encoding="UTF-8" standalone="no"?>
<!DOCTYPE svg PUBLIC "-//W3C//DTD SVG 1.1//EN"
 "http://www.w3.org/Graphics/SVG/1.1/DTD/svg11.dtd">
<!-- Generated by graphviz version 2.38.0 (20140413.2041)
 -->
<!-- Title: G Pages: 1 -->
<svg width="524pt" height="188pt"
 viewBox="0.00 0.00 523.98 188.00" xmlns="http://www.w3.org/2000/svg" xmlns:xlink="http://www.w3.org/1999/xlink">
<g id="graph0" class="graph" transform="scale(1 1) rotate(0) translate(4 184)">
<title>G</title>
<polygon fill="white" stroke="none" points="-4,4 -4,-184 519.984,-184 519.984,4 -4,4"/>
<g id="clust1" class="cluster"><title>cluster_Global</title>
<path fill="none" stroke="gray" d="M257.984,-46C257.984,-46 495.984,-46 495.984,-46 501.984,-46 507.984,-52 507.984,-58 507.984,-58 507.984,-160 507.984,-160 507.984,-166 501.984,-172 495.984,-172 495.984,-172 257.984,-172 257.984,-172 251.984,-172 245.984,-166 245.984,-160 245.984,-160 245.984,-58 245.984,-58 245.984,-52 251.984,-46 257.984,-46"/>
<text text-anchor="middle" x="376.984" y="-159.2" font-family="Times New Roman,serif" font-size="11.00" fill="gray">Global</text>
</g>
<!-- \\report_coursecompetencies_renderer -->
<g id="node1" class="node"><title>\\report_coursecompetencies_renderer</title>
<polygon fill="none" stroke="black" points="499.984,-144 253.984,-144 253.984,-108 499.984,-108 499.984,-144"/>
<text text-anchor="middle" x="376.984" y="-123.2" font-family="Courier,monospace" font-size="11.00">report_coursecompetencies_renderer</text>
</g>
<!-- \\plugin_renderer_base -->
<g id="node3" class="node"><title>\\plugin_renderer_base</title>
<ellipse fill="none" stroke="black" cx="90.9919" cy="-126" rx="90.9839" ry="18"/>
<text text-anchor="middle" x="90.9919" y="-122.3" font-family="Times New Roman,serif" font-size="14.00" fill="gray">\plugin_renderer_base</text>
</g>
<!-- \\report_coursecompetencies_renderer&#45;&gt;\\plugin_renderer_base -->
<g id="edge1" class="edge"><title>\\report_coursecompetencies_renderer&#45;&gt;\\plugin_renderer_base</title>
<path fill="none" stroke="black" d="M253.898,-126C233.414,-126 212.367,-126 192.507,-126"/>
<polygon fill="none" stroke="black" points="192.239,-122.5 182.239,-126 192.239,-129.5 192.239,-122.5"/>
</g>
<!-- \\report_coursecompetencies_report -->
<g id="node2" class="node"><title>\\report_coursecompetencies_report</title>
<polygon fill="none" stroke="black" points="493.484,-90 260.484,-90 260.484,-54 493.484,-54 493.484,-90"/>
<text text-anchor="middle" x="376.984" y="-69.2" font-family="Courier,monospace" font-size="11.00">report_coursecompetencies_report</text>
</g>
<!-- \\renderable -->
<g id="node4" class="node"><title>\\renderable</title>
<ellipse fill="none" stroke="black" cx="90.9919" cy="-72" rx="50.8918" ry="18"/>
<text text-anchor="middle" x="90.9919" y="-68.3" font-family="Times New Roman,serif" font-size="14.00" fill="gray">\renderable</text>
</g>
<!-- \\report_coursecompetencies_report&#45;&gt;\\renderable -->
<g id="edge2" class="edge"><title>\\report_coursecompetencies_report&#45;&gt;\\renderable</title>
<path fill="none" stroke="black" stroke-dasharray="1,5" d="M260.473,-72C223.36,-72 183.744,-72 152.258,-72"/>
<polygon fill="none" stroke="black" points="151.907,-68.5001 141.907,-72 151.907,-75.5001 151.907,-68.5001"/>
</g>
<!-- \\templatable -->
<g id="node5" class="node"><title>\\templatable</title>
<ellipse fill="none" stroke="black" cx="90.9919" cy="-18" rx="53.8905" ry="18"/>
<text text-anchor="middle" x="90.9919" y="-14.3" font-family="Times New Roman,serif" font-size="14.00" fill="gray">\templatable</text>
</g>
<!-- \\report_coursecompetencies_report&#45;&gt;\\templatable -->
<g id="edge3" class="edge"><title>\\report_coursecompetencies_report&#45;&gt;\\templatable</title>
<path fill="none" stroke="black" stroke-dasharray="1,5" d="M281.024,-53.9437C236.914,-45.5564 185.977,-35.871 148.1,-28.6688"/>
<polygon fill="none" stroke="black" points="148.751,-25.2299 138.273,-26.8002 147.443,-32.1067 148.751,-25.2299"/>
</g>
</g>
</svg>
